<svg xmlns="http://www.w3.org/2000/svg" version="1.1" y="0px" x="0px" viewBox="0 0 256 256"><path d="m135.3 0.2158c70.58 3.763 124.5 59.52 120.5 124.5-1.478 23.96-10.64 45.82-25.13 63.69 0.4283 21.57 3.607 52.09 17.04 67.58 0 0-43.42-8.652-71.96-28.65-16.92 6.256-35.56 9.29-54.99 8.253-70.64-3.9-124.6-59.6-120.6-124.6 4.02-65 64.5-114.7 135.1-110.9z" stroke-width="2.56" fill="#8d5fd3"/><path d="m95.04 183.8c18.09-4.564 36.38-8.599 54.3-13.6 18.52-5.435 35.97-16.42 39.73-29.18 3.087-10.72 0.5084-21.78-9.019-29.26-7.076-5.337-19.41-6.73-31.36-5.381 5.755-4.183 14.95-9.269 17.47-15.37 6.167-11.37 2.536-23.58-8.86-30.67-12.4-7.08-33-4.72-50.2-0.7-14.93 3.62-29.87 7.32-44.8 10.96l32.72 113.2zm17.94-76c-2.803-9.699-5.607-19.4-8.412-29.11 8.016-2.212 18.33-4.336 23.23 0.2189 5.043 5.03 7.004 11.89 4.439 18.61-2.4 5.775-11.41 8.596-19.26 10.27zm14.27 49.35l-9.644-33.36c9.37-2.507 20.88-5.104 27.85-0.888 7.255 4.851 9.147 12.76 6.951 20.2-2.225 6.96-13.15 11.62-23.01 13.53-0.7163 0.1754-1.433 0.351-2.149 0.5263z" stroke-width="2.56" fill="#fff"/></svg>
